{
  "accessors": [
    {
      "bufferView": 2,
      "componentType": 5126,
      "count": 1264,
      "max": [
        4.898838043212891,
        2.1360270977020264,
        1.0228161811828613
      ],
      "min": [
        -4.898838043212891,
        -3.5633859634399414,
        -1.1816588640213013
      ],
      "type": "VEC3"
    },
    {
      "bufferView": 2,
      "byteOffset": 15168,
      "componentType": 5126,
      "count": 1264,
      "max": [
        0.9999384880065918,
        0.9985344409942627,
        0.9996335506439209
      ],
      "min": [
        -0.9999384880065918,
        -1.0,
        -0.9995734691619873
      ],
      "type": "VEC3"
    },
    {
      "bufferView": 1,
      "componentType": 5126,
      "count": 1264,
      "max": [
        0.8011157512664795,
        0.9738083481788635
      ],
      "min": [
        0.0,
        0.0
      ],
      "type": "VEC2"
    },
    {
      "bufferView": 0,
      "componentType": 5125,
      "count": 5514,
      "type": "SCALAR"
    },
    {
      "bufferView": 2,
      "byteOffset": 30336,
      "componentType": 5126,
      "count": 655,
      "max": [
        1.5530892610549927,
        0.9818205833435059,
        1.4827816486358643
      ],
      "min": [
        -1.5530892610549927,
        -3.0158426761627197,
        -3.476903200149536
      ],
      "type": "VEC3"
    },
    {
      "bufferView": 2,
      "byteOffset": 38196,
      "componentType": 5126,
      "count": 655,
      "max": [
        0.996621310710907,
        0.9921027421951294,
        0.9954174160957336
      ],
      "min": [
        -0.996621310710907,
        -0.9998753666877747,
        -0.999645471572876
      ],
      "type": "VEC3"
    },
    {
      "bufferView": 1,
      "byteOffset": 10112,
      "componentType": 5126,
      "count": 655,
      "max": [
        0.4340934157371521,
        0.9656548500061035
      ],
      "min": [
        0.4340934157371521,
        0.9656548500061035
      ],
      "type": "VEC2"
    },
    {
      "bufferView": 0,
      "byteOffset": 22056,
      "componentType": 5125,
      "count": 1386,
      "type": "SCALAR"
    },
    {
      "bufferView": 2,
      "byteOffset": 46056,
      "componentType": 5126,
      "count": 13,
      "max": [
        4.157935619354248,
        5.015267848968506,
        -77.67430114746094
      ],
      "min": [
        1.8941677808761597,
        3.699665069580078,
        -79.52803802490234
      ],
      "type": "VEC3"
    },
    {
      "bufferView": 2,
      "byteOffset": 46212,
      "componentType": 5126,
      "count": 13,
      "max": [
        0.9187714457511902,
        0.9962919354438782,
        0.2846834361553192
      ],
      "min": [
        0.07165949791669846,
        0.39457884430885315,
        -0.21302378177642822
      ],
      "type": "VEC3"
    },
    {
      "bufferView": 1,
      "byteOffset": 15352,
      "componentType": 5126,
      "count": 13,
      "max": [
        0.21151277422904968,
        0.2087203413248062
      ],
      "min": [
        0.03554888814687729,
        0.06622295826673508
      ],
      "type": "VEC2"
    },
    {
      "bufferView": 0,
      "byteOffset": 27600,
      "componentType": 5125,
      "count": 42,
      "type": "SCALAR"
    },
    {
      "bufferView": 2,
      "byteOffset": 46368,
      "componentType": 5126,
      "count": 13,
      "max": [
        4.157935619354248,
        5.015267848968506,
        -77.67430114746094
      ],
      "min": [
        1.8941677808761597,
        3.699665069580078,
        -79.52803802490234
      ],
      "type": "VEC3"
    },
    {
      "bufferView": 2,
      "byteOffset": 46524,
      "componentType": 5126,
      "count": 13,
      "max": [
        0.9187714457511902,
        0.9962919354438782,
        0.2846834361553192
      ],
      "min": [
        0.07165949791669846,
        0.39457884430885315,
        -0.21302378177642822
      ],
      "type": "VEC3"
    },
    {
      "bufferView": 1,
      "byteOffset": 15456,
      "componentType": 5126,
      "count": 13,
      "max": [
        0.21151277422904968,
        0.2087203413248062
      ],
      "min": [
        0.035548895597457886,
        0.06622295826673508
      ],
      "type": "VEC2"
    },
    {
      "bufferView": 0,
      "byteOffset": 27768,
      "componentType": 5125,
      "count": 42,
      "type": "SCALAR"
    },
    {
      "bufferView": 2,
      "byteOffset": 46680,
      "componentType": 5126,
      "count": 112,
      "max": [
        3.6370534896850586,
        374.7686767578125,
        25.804231643676758
      ],
      "min": [
        -3.6370534896850586,
        372.59722900390625,
        16.759761810302734
      ],
      "type": "VEC3"
    },
    {
      "bufferView": 2,
      "byteOffset": 48024,
      "componentType": 5126,
      "count": 112,
      "max": [
        0.995535671710968,
        0.9745392203330994,
        0.5819521546363831
      ],
      "min": [
        -0.995535671710968,
        -0.7032983899116516,
        -0.13817070424556732
      ],
      "type": "VEC3"
    },
    {
      "bufferView": 1,
      "byteOffset": 15560,
      "componentType": 5126,
      "count": 112,
      "max": [
        0.421875,
        0.962890625
      ],
      "min": [
        0.421875,
        0.962890625
      ],
      "type": "VEC2"
    },
    {
      "bufferView": 0,
      "byteOffset": 27936,
      "componentType": 5125,
      "count": 168,
      "type": "SCALAR"
    },
    {
      "bufferView": 2,
      "byteOffset": 49368,
      "componentType": 5126,
      "count": 272,
      "max": [
        10.733049392700195,
        -197.77593994140625,
        -8.833854675292969
      ],
      "min": [
        -10.733049392700195,
        -202.7541961669922,
        -12.901958465576172
      ],
      "type": "VEC3"
    },
    {
      "bufferView": 2,
      "byteOffset": 52632,
      "componentType": 5126,
      "count": 272,
      "max": [
        0.8865774273872375,
        0.9888675808906555,
        0.9213947057723999
      ],
      "min": [
        -0.8865774273872375,
        -0.9861939549446106,
        -0.9213947057723999
      ],
      "type": "VEC3"
    },
    {
      "bufferView": 1,
      "byteOffset": 16456,
      "componentType": 5126,
      "count": 272,
      "max": [
        0.10639764368534088,
        0.14860796928405762
      ],
      "min": [
        0.10627472400665283,
        0.13740156590938568
      ],
      "type": "VEC2"
    },
    {
      "bufferView": 0,
      "byteOffset": 28608,
      "componentType": 5125,
      "count": 408,
      "type": "SCALAR"
    },
    {
      "bufferView": 2,
      "byteOffset": 55896,
      "componentType": 5126,
      "count": 276,
      "max": [
        1.5530892610549927,
        0.9294114112854004,
        1.4934812784194946
      ],
      "min": [
        -1.5530892610549927,
        -3.0158426761627197,
        -3.476903200149536
      ],
      "type": "VEC3"
    },
    {
      "bufferView": 2,
      "byteOffset": 59208,
      "componentType": 5126,
      "count": 276,
      "max": [
        0.9953803420066833,
        0.9952258467674255,
        0.9896501302719116
      ],
      "min": [
        -0.9949183464050293,
        -0.999893069267273,
        -0.9933412075042725
      ],
      "type": "VEC3"
    },
    {
      "bufferView": 1,
      "byteOffset": 18632,
      "componentType": 5126,
      "count": 276,
      "max": [
        0.42867404222488403,
        0.9552977681159973
      ],
      "min": [
        0.42867404222488403,
        0.9552977681159973
      ],
      "type": "VEC2"
    },
    {
      "bufferView": 0,
      "byteOffset": 30240,
      "componentType": 5125,
      "count": 1476,
      "type": "SCALAR"
    },
    {
      "bufferView": 2,
      "byteOffset": 62520,
      "componentType": 5126,
      "count": 24,
      "max": [
        0.16412952542304993,
        2.8606958389282227,
        0.21336327493190765
      ],
      "min": [
        -0.16412952542304993,
        2.8188583850860596,
        0.16591887176036835
      ],
      "type": "VEC3"
    },
    {
      "bufferView": 2,
      "byteOffset": 62808,
      "componentType": 5126,
      "count": 24,
      "max": [
        0.5894102454185486,
        0.17713019251823425,
        0.7881767153739929
      ],
      "min": [
        -0.5894085764884949,
        0.17712971568107605,
        0.7881754636764526
      ],
      "type": "VEC3"
    },
    {
      "bufferView": 1,
      "byteOffset": 20840,
      "componentType": 5126,
      "count": 24,
      "max": [
        0.3484313189983368,
        0.9537838697433472
      ],
      "min": [
        0.3484313189983368,
        0.9537838697433472
      ],
      "type": "VEC2"
    },
    {
      "bufferView": 0,
      "byteOffset": 36144,
      "componentType": 5125,
      "count": 60,
      "type": "SCALAR"
    },
    {
      "bufferView": 2,
      "byteOffset": 63096,
      "componentType": 5126,
      "count": 4,
      "max": [
        1.0,
        0.0,
        1.0
      ],
      "min": [
        -1.0,
        0.0,
        -1.0
      ],
      "type": "VEC3"
    },
    {
      "bufferView": 2,
      "byteOffset": 63144,
      "componentType": 5126,
      "count": 4,
      "max": [
        0.0,
        1.0,
        -0.0
      ],
      "min": [
        0.0,
        1.0,
        -0.0
      ],
      "type": "VEC3"
    },
    {
      "bufferView": 1,
      "byteOffset": 21032,
      "componentType": 5126,
      "count": 4,
      "max": [
        0.05459827184677124,
        0.9798526763916016
      ],
      "min": [
        0.05459827184677124,
        0.9798526763916016
      ],
      "type": "VEC2"
    },
    {
      "bufferView": 0,
      "byteOffset": 36384,
      "componentType": 5125,
      "count": 6,
      "type": "SCALAR"
    }
  ],
  "asset": {
    "extras": {
      "author": "micaelsampaio (https://sketchfab.com/micaelsampaio)",
      "license": "CC-BY-4.0 (http://creativecommons.org/licenses/by/4.0/)",
      "source": "https://sketchfab.com/3d-models/chichiro-spirited-away-4375f06b33d449c3a68649afc78b4c08",
      "title": "Chichiro (Spirited Away)"
    },
    "generator": "Sketchfab-12.68.0",
    "version": "2.0"
  },
  "bufferViews": [
    {
      "buffer": 0,
      "byteLength": 36408,
      "name": "floatBufferViews",
      "target": 34963
    },
    {
      "buffer": 0,
      "byteLength": 21064,
      "byteOffset": 36408,
      "byteStride": 8,
      "name": "floatBufferViews",
      "target": 34962
    },
    {
      "buffer": 0,
      "byteLength": 63192,
      "byteOffset": 57472,
      "byteStride": 12,
      "name": "floatBufferViews",
      "target": 34962
    }
  ],
  "buffers": [
    {
      "byteLength": 120664,
      "uri": "scene.bin"
    }
  ],
  "extensionsUsed": [
    "KHR_materials_unlit"
  ],
  "images": [
    {
      "uri": "textures/Material.001_baseColor.png"
    }
  ],
  "materials": [
    {
      "doubleSided": true,
      "extensions": {
        "KHR_materials_unlit": {}
      },
      "name": "Material.001",
      "pbrMetallicRoughness": {
        "baseColorTexture": {
          "index": 0
        },
        "metallicFactor": 0.0
      }
    }
  ],
  "meshes": [
    {
      "name": "Object_0",
      "primitives": [
        {
          "attributes": {
            "NORMAL": 1,
            "POSITION": 0,
            "TEXCOORD_0": 2
          },
          "indices": 3,
          "material": 0,
          "mode": 4
        }
      ]
    },
    {
      "name": "Object_1",
      "primitives": [
        {
          "attributes": {
            "NORMAL": 5,
            "POSITION": 4,
            "TEXCOORD_0": 6
          },
          "indices": 7,
          "material": 0,
          "mode": 4
        }
      ]
    },
    {
      "name": "Object_2",
      "primitives": [
        {
          "attributes": {
            "NORMAL": 9,
            "POSITION": 8,
            "TEXCOORD_0": 10
          },
          "indices": 11,
          "material": 0,
          "mode": 4
        }
      ]
    },
    {
      "name": "Object_3",
      "primitives": [
        {
          "attributes": {
            "NORMAL": 13,
            "POSITION": 12,
            "TEXCOORD_0": 14
          },
          "indices": 15,
          "material": 0,
          "mode": 4
        }
      ]
    },
    {
      "name": "Object_4",
      "primitives": [
        {
          "attributes": {
            "NORMAL": 17,
            "POSITION": 16,
            "TEXCOORD_0": 18
          },
          "indices": 19,
          "material": 0,
          "mode": 4
        }
      ]
    },
    {
      "name": "Object_5",
      "primitives": [
        {
          "attributes": {
            "NORMAL": 21,
            "POSITION": 20,
            "TEXCOORD_0": 22
          },
          "indices": 23,
          "material": 0,
          "mode": 4
        }
      ]
    },
    {
      "name": "Object_6",
      "primitives": [
        {
          "attributes": {
            "NORMAL": 25,
            "POSITION": 24,
            "TEXCOORD_0": 26
          },
          "indices": 27,
          "material": 0,
          "mode": 4
        }
      ]
    },
    {
      "name": "Object_7",
      "primitives": [
        {
          "attributes": {
            "NORMAL": 29,
            "POSITION": 28,
            "TEXCOORD_0": 30
          },
          "indices": 31,
          "material": 0,
          "mode": 4
        }
      ]
    },
    {
      "name": "Object_8",
      "primitives": [
        {
          "attributes": {
            "NORMAL": 33,
            "POSITION": 32,
            "TEXCOORD_0": 34
          },
          "indices": 35,
          "material": 0,
          "mode": 4
        }
      ]
    }
  ],
  "nodes": [
    {
      "children": [
        1
      ],
      "matrix": [
        1.0,
        0.0,
        0.0,
        0.0,
        0.0,
        2.220446049250313e-16,
        -1.0,
        0.0,
        0.0,
        1.0,
        2.220446049250313e-16,
        0.0,
        0.0,
        0.0,
        0.0,
        1.0
      ],
      "name": "Sketchfab_model"
    },
    {
      "children": [
        2
      ],
      "name": "root"
    },
    {
      "children": [
        3,
        5,
        7,
        9,
        11,
        13,
        15,
        17,
        19
      ],
      "matrix": [
        1.0,
        0.0,
        0.0,
        0.0,
        0.0,
        2.220446049250313e-16,
        1.0,
        0.0,
        0.0,
        -1.0,
        2.220446049250313e-16,
        0.0,
        0.0,
        0.0,
        0.0,
        1.0
      ],
      "name": "GLTF_SceneRootNode"
    },
    {
      "children": [
        4
      ],
      "matrix": [
        0.23637723922729492,
        0.0,
        0.0,
        0.0,
        0.0,
        0.554817259311676,
        0.0,
        0.0,
        0.0,
        0.0,
        0.25019752979278564,
        0.0,
        0.0,
        1.9907711744308472,
        0.0,
        1.0
      ],
      "name": "Cube_3"
    },
    {
      "mesh": 0,
      "name": "Object_4"
    },
    {
      "children": [
        6
      ],
      "matrix": [
        0.17984402179718018,
        0.0,
        0.0,
        0.0,
        0.0,
        0.17984402179718018,
        0.0,
        0.0,
        0.0,
        0.0,
        0.17984402179718018,
        0.0,
        0.0,
        3.1688997745513916,
        0.0,
        1.0
      ],
      "name": "HAIR COPY_4"
    },
    {
      "mesh": 1,
      "name": "Object_6"
    },
    {
      "children": [
        8
      ],
      "matrix": [
        0.037176456302404404,
        0.0,
        0.0,
        0.0,
        0.0,
        0.0,
        0.037176456302404404,
        0.0,
        0.0,
        -0.037176456302404404,
        0.0,
        0.0,
        0.0,
        0.0,
        0.0,
        1.0
      ],
      "name": "Circle_5"
    },
    {
      "mesh": 2,
      "name": "Object_8"
    },
    {
      "children": [
        10
      ],
      "matrix": [
        -0.037176456302404404,
        -0.0,
        -0.0,
        -0.0,
        0.0,
        0.0,
        0.037176456302404404,
        0.0,
        0.0,
        -0.037176456302404404,
        0.0,
        0.0,
        0.0,
        0.0,
        0.0,
        1.0
      ],
      "name": "Circle.001_6"
    },
    {
      "mesh": 3,
      "name": "Object_10"
    },
    {
      "children": [
        12
      ],
      "matrix": [
        0.04637669399380684,
        0.0,
        0.0,
        0.0,
        0.0,
        0.00796615518629551,
        0.0,
        0.0,
        0.0,
        0.0,
        0.00796615518629551,
        0.0,
        0.0,
        0.0,
        0.0,
        1.0
      ],
      "name": "Cube.002_7"
    },
    {
      "mesh": 4,
      "name": "Object_12"
    },
    {
      "children": [
        14
      ],
      "matrix": [
        -0.014587966725230217,
        -0.0,
        -0.0,
        -0.0,
        -0.0,
        -0.014587966725230217,
        -0.0,
        -0.0,
        -0.0,
        -0.0,
        -0.014587966725230217,
        -0.0,
        0.0,
        0.0,
        0.0,
        1.0
      ],
      "name": "Cube.003_8"
    },
    {
      "mesh": 5,
      "name": "Object_14"
    },
    {
      "children": [
        16
      ],
      "matrix": [
        0.17984402179718018,
        0.0,
        0.0,
        0.0,
        0.0,
        0.17984402179718018,
        0.0,
        0.0,
        0.0,
        0.0,
        0.17984402179718018,
        0.0,
        0.0,
        3.1688997745513916,
        0.0,
        1.0
      ],
      "name": "HAIR_9"
    },
    {
      "mesh": 6,
      "name": "Object_16"
    },
    {
      "children": [
        18
      ],
      "matrix": [
        1.0,
        0.0,
        0.0,
        0.0,
        0.0,
        1.0,
        0.0,
        0.0,
        0.0,
        0.0,
        1.0,
        0.0,
        0.0,
        0.0,
        -0.013383074663579464,
        1.0
      ],
      "name": "Cylinder.001_10"
    },
    {
      "mesh": 7,
      "name": "Object_18"
    },
    {
      "children": [
        20
      ],
      "matrix": [
        -19.264434814453125,
        -0.0,
        0.0,
        -0.0,
        -0.0,
        -0.0,
        -19.264434814453125,
        -0.0,
        -0.0,
        19.264434814453125,
        0.0,
        -0.0,
        0.0,
        0.0,
        -13.449522018432617,
        1.0
      ],
      "name": "Plane_11"
    },
    {
      "mesh": 8,
      "name": "Object_20"
    }
  ],
  "samplers": [
    {
      "magFilter": 9729,
      "minFilter": 9987,
      "wrapS": 10497,
      "wrapT": 10497
    }
  ],
  "scene": 0,
  "scenes": [
    {
      "name": "Sketchfab_Scene",
      "nodes": [
        0
      ]
    }
  ],
  "textures": [
    {
      "sampler": 0,
      "source": 0
    }
  ]
}
